<mxfile host="65bd71144e">
    <diagram id="Occs_rf_Q6K4bqB3dLCL" name="Page-1">
        <mxGraphModel dx="1289" dy="1614" grid="1" gridSize="10" guides="1" tooltips="1" connect="1" arrows="1" fold="1" page="1" pageScale="1" pageWidth="850" pageHeight="1100" math="0" shadow="0">
            <root>
                <mxCell id="0"/>
                <mxCell id="1" parent="0"/>
                <mxCell id="3" value="" style="rounded=0;whiteSpace=wrap;html=1;" parent="1" vertex="1">
                    <mxGeometry x="-680" y="-320" width="870" height="630" as="geometry"/>
                </mxCell>
                <mxCell id="4" value="Handlebar view custom content" style="text;html=1;strokeColor=none;fillColor=none;align=center;verticalAlign=middle;whiteSpace=wrap;rounded=0;" parent="1" vertex="1">
                    <mxGeometry x="-780" y="10" width="80" height="40" as="geometry"/>
                </mxCell>
                <mxCell id="6" value="Navbar" style="rounded=0;whiteSpace=wrap;html=1;" parent="1" vertex="1">
                    <mxGeometry x="-680" y="-320" width="870" height="60" as="geometry"/>
                </mxCell>
                <mxCell id="7" value="Home" style="rounded=1;whiteSpace=wrap;html=1;" parent="1" vertex="1">
                    <mxGeometry x="-660" y="-305" width="80" height="30" as="geometry"/>
                </mxCell>
                <mxCell id="10" value="Games" style="rounded=1;whiteSpace=wrap;html=1;" parent="1" vertex="1">
                    <mxGeometry x="-580" y="-305" width="80" height="30" as="geometry"/>
                </mxCell>
                <mxCell id="11" value="Search Bar" style="rounded=1;whiteSpace=wrap;html=1;" parent="1" vertex="1">
                    <mxGeometry x="-140" y="-305" width="220" height="30" as="geometry"/>
                </mxCell>
                <mxCell id="13" value="About us" style="rounded=1;whiteSpace=wrap;html=1;" parent="1" vertex="1">
                    <mxGeometry x="-500" y="-305" width="80" height="30" as="geometry"/>
                </mxCell>
                <mxCell id="15" value="Login" style="rounded=1;whiteSpace=wrap;html=1;" parent="1" vertex="1">
                    <mxGeometry x="100" y="-305" width="80" height="30" as="geometry"/>
                </mxCell>
                <mxCell id="16" value="Banner Image, name of website and cool image" style="rounded=0;whiteSpace=wrap;html=1;" parent="1" vertex="1">
                    <mxGeometry x="-680" y="-260" width="870" height="250" as="geometry"/>
                </mxCell>
                <mxCell id="18" value="" style="shape=curlyBracket;whiteSpace=wrap;html=1;rounded=1;" parent="1" vertex="1">
                    <mxGeometry x="-700" y="-260" width="20" height="570" as="geometry"/>
                </mxCell>
                <mxCell id="19" value="&lt;font style=&quot;font-size: 24px&quot;&gt;/&lt;br&gt;/home&lt;/font&gt;" style="text;html=1;strokeColor=none;fillColor=none;align=center;verticalAlign=middle;whiteSpace=wrap;rounded=0;" parent="1" vertex="1">
                    <mxGeometry x="-350" y="-410" width="160" height="60" as="geometry"/>
                </mxCell>
                <mxCell id="20" value="" style="rounded=0;whiteSpace=wrap;html=1;" parent="1" vertex="1">
                    <mxGeometry x="390" y="-320" width="870" height="630" as="geometry"/>
                </mxCell>
                <mxCell id="21" value="Handlebar view 'profile' custom view" style="text;html=1;strokeColor=none;fillColor=none;align=center;verticalAlign=middle;whiteSpace=wrap;rounded=0;" parent="1" vertex="1">
                    <mxGeometry x="290" y="10" width="80" height="40" as="geometry"/>
                </mxCell>
                <mxCell id="22" value="Navbar" style="rounded=0;whiteSpace=wrap;html=1;" parent="1" vertex="1">
                    <mxGeometry x="390" y="-320" width="870" height="60" as="geometry"/>
                </mxCell>
                <mxCell id="23" value="Home" style="rounded=1;whiteSpace=wrap;html=1;" parent="1" vertex="1">
                    <mxGeometry x="410" y="-305" width="80" height="30" as="geometry"/>
                </mxCell>
                <mxCell id="24" value="Games" style="rounded=1;whiteSpace=wrap;html=1;" parent="1" vertex="1">
                    <mxGeometry x="490" y="-305" width="80" height="30" as="geometry"/>
                </mxCell>
                <mxCell id="25" value="Search Bar" style="rounded=1;whiteSpace=wrap;html=1;" parent="1" vertex="1">
                    <mxGeometry x="930" y="-305" width="220" height="30" as="geometry"/>
                </mxCell>
                <mxCell id="26" value="About us" style="rounded=1;whiteSpace=wrap;html=1;" parent="1" vertex="1">
                    <mxGeometry x="570" y="-305" width="80" height="30" as="geometry"/>
                </mxCell>
                <mxCell id="27" value="Login" style="rounded=1;whiteSpace=wrap;html=1;" parent="1" vertex="1">
                    <mxGeometry x="1170" y="-305" width="80" height="30" as="geometry"/>
                </mxCell>
                <mxCell id="30" value="" style="shape=curlyBracket;whiteSpace=wrap;html=1;rounded=1;" parent="1" vertex="1">
                    <mxGeometry x="370" y="-260" width="20" height="570" as="geometry"/>
                </mxCell>
                <mxCell id="31" value="&lt;font style=&quot;font-size: 24px&quot;&gt;/profile&lt;/font&gt;" style="text;html=1;strokeColor=none;fillColor=none;align=center;verticalAlign=middle;whiteSpace=wrap;rounded=0;" parent="1" vertex="1">
                    <mxGeometry x="720" y="-410" width="120" height="60" as="geometry"/>
                </mxCell>
                <mxCell id="33" value="{Username}" style="text;strokeColor=none;fillColor=none;html=1;fontSize=24;fontStyle=1;verticalAlign=middle;align=center;" parent="1" vertex="1">
                    <mxGeometry x="425" y="-230" width="155" height="40" as="geometry"/>
                </mxCell>
                <mxCell id="34" value="" style="shape=ext;double=1;rounded=0;whiteSpace=wrap;html=1;" parent="1" vertex="1">
                    <mxGeometry x="417.5" y="-170" width="172.5" height="430" as="geometry"/>
                </mxCell>
                <mxCell id="49" value="" style="verticalLabelPosition=bottom;shadow=0;dashed=0;align=center;html=1;verticalAlign=top;strokeWidth=1;shape=mxgraph.mockup.navigation.coverFlow;strokeColor=#999999;" parent="1" vertex="1">
                    <mxGeometry x="-520" y="30" width="550" height="240" as="geometry"/>
                </mxCell>
                <mxCell id="50" value="Carosel of up and coming games" style="text;html=1;strokeColor=none;fillColor=none;align=center;verticalAlign=middle;whiteSpace=wrap;rounded=0;" parent="1" vertex="1">
                    <mxGeometry x="-330" y="135" width="160" height="30" as="geometry"/>
                </mxCell>
                <mxCell id="51" value="My Games" style="rounded=0;whiteSpace=wrap;html=1;" parent="1" vertex="1">
                    <mxGeometry x="417.5" y="-170" width="172.5" height="60" as="geometry"/>
                </mxCell>
                <mxCell id="52" value="Wishlist" style="rounded=0;whiteSpace=wrap;html=1;" parent="1" vertex="1">
                    <mxGeometry x="418" y="-110" width="172" height="60" as="geometry"/>
                </mxCell>
                <mxCell id="53" value="Game Reviews" style="rounded=0;whiteSpace=wrap;html=1;" parent="1" vertex="1">
                    <mxGeometry x="418" y="-50" width="172" height="60" as="geometry"/>
                </mxCell>
                <mxCell id="54" value="" style="rounded=0;whiteSpace=wrap;html=1;" parent="1" vertex="1">
                    <mxGeometry x="620" y="-230" width="610" height="500" as="geometry"/>
                </mxCell>
                <mxCell id="55" value="" style="verticalLabelPosition=bottom;shadow=0;dashed=0;align=center;html=1;verticalAlign=top;strokeWidth=1;shape=mxgraph.mockup.navigation.coverFlow;strokeColor=#999999;" parent="1" vertex="1">
                    <mxGeometry x="650" y="-210" width="550" height="240" as="geometry"/>
                </mxCell>
                <mxCell id="56" value="&lt;h1&gt;Game name&lt;/h1&gt;&lt;div&gt;Review data&lt;/div&gt;&lt;div&gt;Game summary data&lt;/div&gt;&lt;div&gt;&lt;br&gt;&lt;/div&gt;" style="text;html=1;strokeColor=none;fillColor=none;spacing=5;spacingTop=-20;whiteSpace=wrap;overflow=hidden;rounded=0;" parent="1" vertex="1">
                    <mxGeometry x="650" y="60" width="540" height="180" as="geometry"/>
                </mxCell>
                <mxCell id="126" style="edgeStyle=none;html=1;fontFamily=Helvetica;fontSize=12;fontColor=#FCFCFC;entryX=0.491;entryY=0.017;entryDx=0;entryDy=0;entryPerimeter=0;" parent="1" source="57" target="129" edge="1">
                    <mxGeometry relative="1" as="geometry">
                        <mxPoint x="2015" y="600" as="targetPoint"/>
                    </mxGeometry>
                </mxCell>
                <mxCell id="57" value="" style="rounded=0;whiteSpace=wrap;html=1;" parent="1" vertex="1">
                    <mxGeometry x="1580" y="-320" width="870" height="630" as="geometry"/>
                </mxCell>
                <mxCell id="58" value="Handlebar view 'games' custom view" style="text;html=1;strokeColor=none;fillColor=none;align=center;verticalAlign=middle;whiteSpace=wrap;rounded=0;" parent="1" vertex="1">
                    <mxGeometry x="1480" y="10" width="80" height="40" as="geometry"/>
                </mxCell>
                <mxCell id="59" value="Navbar" style="rounded=0;whiteSpace=wrap;html=1;" parent="1" vertex="1">
                    <mxGeometry x="1580" y="-320" width="870" height="60" as="geometry"/>
                </mxCell>
                <mxCell id="60" value="Home" style="rounded=1;whiteSpace=wrap;html=1;" parent="1" vertex="1">
                    <mxGeometry x="1600" y="-305" width="80" height="30" as="geometry"/>
                </mxCell>
                <mxCell id="61" value="Games" style="rounded=1;whiteSpace=wrap;html=1;" parent="1" vertex="1">
                    <mxGeometry x="1680" y="-305" width="80" height="30" as="geometry"/>
                </mxCell>
                <mxCell id="62" value="Search Bar" style="rounded=1;whiteSpace=wrap;html=1;" parent="1" vertex="1">
                    <mxGeometry x="2120" y="-305" width="220" height="30" as="geometry"/>
                </mxCell>
                <mxCell id="63" value="About us" style="rounded=1;whiteSpace=wrap;html=1;" parent="1" vertex="1">
                    <mxGeometry x="1760" y="-305" width="80" height="30" as="geometry"/>
                </mxCell>
                <mxCell id="64" value="Login" style="rounded=1;whiteSpace=wrap;html=1;" parent="1" vertex="1">
                    <mxGeometry x="2360" y="-305" width="80" height="30" as="geometry"/>
                </mxCell>
                <mxCell id="65" value="" style="shape=curlyBracket;whiteSpace=wrap;html=1;rounded=1;" parent="1" vertex="1">
                    <mxGeometry x="1560" y="-260" width="20" height="570" as="geometry"/>
                </mxCell>
                <mxCell id="66" value="&lt;br&gt;&lt;font style=&quot;font-size: 24px&quot;&gt;GET ALL GAMES&lt;br&gt;/games&lt;/font&gt;" style="text;html=1;strokeColor=none;fillColor=none;align=center;verticalAlign=middle;whiteSpace=wrap;rounded=0;" parent="1" vertex="1">
                    <mxGeometry x="1885" y="-440" width="260" height="90" as="geometry"/>
                </mxCell>
                <mxCell id="76" style="edgeStyle=none;html=1;fontSize=48;" parent="1" source="75" target="77" edge="1">
                    <mxGeometry relative="1" as="geometry">
                        <mxPoint x="2710" y="-280" as="targetPoint"/>
                    </mxGeometry>
                </mxCell>
                <mxCell id="75" value="&lt;span style=&quot;font-size: 24px&quot;&gt;+&lt;/span&gt;" style="rounded=0;whiteSpace=wrap;html=1;" parent="1" vertex="1">
                    <mxGeometry x="2270" y="-240" width="150" height="40" as="geometry"/>
                </mxCell>
                <mxCell id="77" value="" style="rounded=0;whiteSpace=wrap;html=1;fontSize=48;" parent="1" vertex="1">
                    <mxGeometry x="2660" y="-305" width="450" height="515" as="geometry"/>
                </mxCell>
                <mxCell id="78" value="&lt;font style=&quot;font-size: 24px&quot;&gt;Add new review&lt;/font&gt;" style="text;html=1;strokeColor=none;fillColor=none;align=center;verticalAlign=middle;whiteSpace=wrap;rounded=0;fontSize=48;" parent="1" vertex="1">
                    <mxGeometry x="2720" y="-290" width="360" height="50" as="geometry"/>
                </mxCell>
                <mxCell id="79" value="add review modal" style="text;html=1;strokeColor=none;fillColor=none;align=center;verticalAlign=middle;whiteSpace=wrap;rounded=0;fontSize=24;" parent="1" vertex="1">
                    <mxGeometry x="2780" y="-360" width="220" height="30" as="geometry"/>
                </mxCell>
                <mxCell id="80" value="(dropdown) Title of game" style="rounded=0;whiteSpace=wrap;html=1;fontSize=24;" parent="1" vertex="1">
                    <mxGeometry x="2690" y="-230" width="390" height="50" as="geometry"/>
                </mxCell>
                <mxCell id="81" value="(dropdown) Game platform" style="rounded=0;whiteSpace=wrap;html=1;fontSize=24;" parent="1" vertex="1">
                    <mxGeometry x="2690" y="-180" width="390" height="60" as="geometry"/>
                </mxCell>
                <mxCell id="90" style="edgeStyle=none;html=1;fontFamily=Helvetica;fontSize=12;fontColor=#BABABA;entryX=0.006;entryY=0.5;entryDx=0;entryDy=0;entryPerimeter=0;" parent="1" source="82" target="91" edge="1">
                    <mxGeometry relative="1" as="geometry">
                        <mxPoint x="3220" y="-110" as="targetPoint"/>
                    </mxGeometry>
                </mxCell>
                <mxCell id="82" value="&lt;span style=&quot;color: rgba(0 , 0 , 0 , 0) ; font-family: monospace ; font-size: 0px&quot;&gt;%3CmxGraphModel%3E%3Croot%3E%3CmxCell%20id%3D%220%22%2F%3E%3CmxCell%20id%3D%221%22%20parent%3D%220%22%2F%3E%3CmxCell%20id%3D%222%22%20value%3D%22(dropdown)%20Game%20platform%22%20style%3D%22rounded%3D0%3BwhiteSpace%3Dwrap%3Bhtml%3D1%3BfontSize%3D24%3B%22%20vertex%3D%221%22%20parent%3D%221%22%3E%3CmxGeometry%20x%3D%222690%22%20y%3D%22-180%22%20width%3D%22290%22%20height%3D%2260%22%20as%3D%22geometry%22%2F%3E%3C%2FmxCell%3E%3C%2Froot%3E%3C%2FmxGraphModel%3E&lt;/span&gt;Rating 1-5 coins" style="rounded=0;whiteSpace=wrap;html=1;fontSize=24;" parent="1" vertex="1">
                    <mxGeometry x="2690" y="-120" width="390" height="60" as="geometry"/>
                </mxCell>
                <mxCell id="84" value="&lt;p&gt;&lt;span style=&quot;font-size: 12px&quot;&gt;&lt;font color=&quot;#fcfcfc&quot;&gt;(Text area) Written review of game&lt;/font&gt;&lt;/span&gt;&lt;/p&gt;" style="rounded=0;whiteSpace=wrap;html=1;fontSize=24;" parent="1" vertex="1">
                    <mxGeometry x="2690" y="-60" width="390" height="210" as="geometry"/>
                </mxCell>
                <mxCell id="85" value="" style="ellipse;whiteSpace=wrap;html=1;aspect=fixed;fontFamily=Helvetica;fontSize=12;fontColor=#BABABA;" parent="1" vertex="1">
                    <mxGeometry x="2720" y="-115" width="50" height="50" as="geometry"/>
                </mxCell>
                <mxCell id="91" value="https://stackoverflow.com/questions/8118266/integrating-css-star-rating-into-an-html-form" style="text;html=1;align=center;verticalAlign=middle;resizable=0;points=[];autosize=1;strokeColor=none;fillColor=none;fontSize=12;fontFamily=Helvetica;fontColor=#BABABA;" parent="1" vertex="1">
                    <mxGeometry x="3230" y="-120" width="490" height="20" as="geometry"/>
                </mxCell>
                <mxCell id="92" value="&lt;font color=&quot;#fcfcfc&quot;&gt;Post review&lt;/font&gt;" style="rounded=1;whiteSpace=wrap;html=1;fontFamily=Helvetica;fontSize=12;fontColor=#BABABA;" parent="1" vertex="1">
                    <mxGeometry x="2825" y="160" width="120" height="40" as="geometry"/>
                </mxCell>
                <mxCell id="93" value="" style="rounded=0;whiteSpace=wrap;html=1;fontFamily=Helvetica;fontSize=12;fontColor=#FCFCFC;" parent="1" vertex="1">
                    <mxGeometry x="1630" y="-210" width="200" height="220" as="geometry"/>
                </mxCell>
                <mxCell id="103" value="Game title" style="rounded=0;whiteSpace=wrap;html=1;fontFamily=Helvetica;fontSize=12;fontColor=#FCFCFC;" parent="1" vertex="1">
                    <mxGeometry x="1640" y="-200" width="180" height="60" as="geometry"/>
                </mxCell>
                <mxCell id="104" value="Short Summary&lt;br&gt;Rating" style="rounded=0;whiteSpace=wrap;html=1;fontFamily=Helvetica;fontSize=12;fontColor=#FCFCFC;" parent="1" vertex="1">
                    <mxGeometry x="1640" y="-140" width="180" height="60" as="geometry"/>
                </mxCell>
                <mxCell id="105" value="Read Reviews" style="rounded=0;whiteSpace=wrap;html=1;fontFamily=Helvetica;fontSize=12;fontColor=#FCFCFC;" parent="1" vertex="1">
                    <mxGeometry x="1670" y="-70" width="120" height="60" as="geometry"/>
                </mxCell>
                <mxCell id="106" value="" style="rounded=0;whiteSpace=wrap;html=1;fontFamily=Helvetica;fontSize=12;fontColor=#FCFCFC;" parent="1" vertex="1">
                    <mxGeometry x="1840" y="-210" width="200" height="220" as="geometry"/>
                </mxCell>
                <mxCell id="107" value="Game title" style="rounded=0;whiteSpace=wrap;html=1;fontFamily=Helvetica;fontSize=12;fontColor=#FCFCFC;" parent="1" vertex="1">
                    <mxGeometry x="1850" y="-200" width="180" height="60" as="geometry"/>
                </mxCell>
                <mxCell id="108" value="Short Summary&lt;br&gt;Rating" style="rounded=0;whiteSpace=wrap;html=1;fontFamily=Helvetica;fontSize=12;fontColor=#FCFCFC;" parent="1" vertex="1">
                    <mxGeometry x="1850" y="-140" width="180" height="60" as="geometry"/>
                </mxCell>
                <mxCell id="109" value="Read Reviews" style="rounded=0;whiteSpace=wrap;html=1;fontFamily=Helvetica;fontSize=12;fontColor=#FCFCFC;" parent="1" vertex="1">
                    <mxGeometry x="1880" y="-70" width="120" height="60" as="geometry"/>
                </mxCell>
                <mxCell id="110" value="" style="rounded=0;whiteSpace=wrap;html=1;fontFamily=Helvetica;fontSize=12;fontColor=#FCFCFC;" parent="1" vertex="1">
                    <mxGeometry x="2050" y="-210" width="200" height="220" as="geometry"/>
                </mxCell>
                <mxCell id="111" value="Game title" style="rounded=0;whiteSpace=wrap;html=1;fontFamily=Helvetica;fontSize=12;fontColor=#FCFCFC;" parent="1" vertex="1">
                    <mxGeometry x="2060" y="-200" width="180" height="60" as="geometry"/>
                </mxCell>
                <mxCell id="112" value="Short Summary&lt;br&gt;Rating" style="rounded=0;whiteSpace=wrap;html=1;fontFamily=Helvetica;fontSize=12;fontColor=#FCFCFC;" parent="1" vertex="1">
                    <mxGeometry x="2060" y="-140" width="180" height="60" as="geometry"/>
                </mxCell>
                <mxCell id="113" value="Read Reviews" style="rounded=0;whiteSpace=wrap;html=1;fontFamily=Helvetica;fontSize=12;fontColor=#FCFCFC;" parent="1" vertex="1">
                    <mxGeometry x="2090" y="-70" width="120" height="60" as="geometry"/>
                </mxCell>
                <mxCell id="114" value="" style="rounded=0;whiteSpace=wrap;html=1;fontFamily=Helvetica;fontSize=12;fontColor=#FCFCFC;" parent="1" vertex="1">
                    <mxGeometry x="1630" y="30" width="200" height="220" as="geometry"/>
                </mxCell>
                <mxCell id="115" value="Game title" style="rounded=0;whiteSpace=wrap;html=1;fontFamily=Helvetica;fontSize=12;fontColor=#FCFCFC;" parent="1" vertex="1">
                    <mxGeometry x="1640" y="40" width="180" height="60" as="geometry"/>
                </mxCell>
                <mxCell id="116" value="Short Summary&lt;br&gt;Rating" style="rounded=0;whiteSpace=wrap;html=1;fontFamily=Helvetica;fontSize=12;fontColor=#FCFCFC;" parent="1" vertex="1">
                    <mxGeometry x="1640" y="100" width="180" height="60" as="geometry"/>
                </mxCell>
                <mxCell id="117" value="Read Reviews" style="rounded=0;whiteSpace=wrap;html=1;fontFamily=Helvetica;fontSize=12;fontColor=#FCFCFC;" parent="1" vertex="1">
                    <mxGeometry x="1670" y="170" width="120" height="60" as="geometry"/>
                </mxCell>
                <mxCell id="118" value="" style="rounded=0;whiteSpace=wrap;html=1;fontFamily=Helvetica;fontSize=12;fontColor=#FCFCFC;" parent="1" vertex="1">
                    <mxGeometry x="1840" y="30" width="200" height="220" as="geometry"/>
                </mxCell>
                <mxCell id="119" value="Game title" style="rounded=0;whiteSpace=wrap;html=1;fontFamily=Helvetica;fontSize=12;fontColor=#FCFCFC;" parent="1" vertex="1">
                    <mxGeometry x="1850" y="40" width="180" height="60" as="geometry"/>
                </mxCell>
                <mxCell id="120" value="Short Summary&lt;br&gt;Rating" style="rounded=0;whiteSpace=wrap;html=1;fontFamily=Helvetica;fontSize=12;fontColor=#FCFCFC;" parent="1" vertex="1">
                    <mxGeometry x="1850" y="100" width="180" height="60" as="geometry"/>
                </mxCell>
                <mxCell id="121" value="Read Reviews" style="rounded=0;whiteSpace=wrap;html=1;fontFamily=Helvetica;fontSize=12;fontColor=#FCFCFC;" parent="1" vertex="1">
                    <mxGeometry x="1880" y="170" width="120" height="60" as="geometry"/>
                </mxCell>
                <mxCell id="122" value="" style="rounded=0;whiteSpace=wrap;html=1;fontFamily=Helvetica;fontSize=12;fontColor=#FCFCFC;" parent="1" vertex="1">
                    <mxGeometry x="2050" y="30" width="200" height="220" as="geometry"/>
                </mxCell>
                <mxCell id="123" value="Game title" style="rounded=0;whiteSpace=wrap;html=1;fontFamily=Helvetica;fontSize=12;fontColor=#FCFCFC;" parent="1" vertex="1">
                    <mxGeometry x="2060" y="40" width="180" height="60" as="geometry"/>
                </mxCell>
                <mxCell id="124" value="Short Summary&lt;br&gt;Rating" style="rounded=0;whiteSpace=wrap;html=1;fontFamily=Helvetica;fontSize=12;fontColor=#FCFCFC;" parent="1" vertex="1">
                    <mxGeometry x="2060" y="100" width="180" height="60" as="geometry"/>
                </mxCell>
                <mxCell id="125" value="Read Reviews" style="rounded=0;whiteSpace=wrap;html=1;fontFamily=Helvetica;fontSize=12;fontColor=#FCFCFC;" parent="1" vertex="1">
                    <mxGeometry x="2090" y="170" width="120" height="60" as="geometry"/>
                </mxCell>
                <mxCell id="127" value="" style="rounded=0;whiteSpace=wrap;html=1;" parent="1" vertex="1">
                    <mxGeometry x="1640" y="690" width="870" height="990" as="geometry"/>
                </mxCell>
                <mxCell id="128" value="Handlebar view 'single.game' custom view" style="text;html=1;strokeColor=none;fillColor=none;align=center;verticalAlign=middle;whiteSpace=wrap;rounded=0;" parent="1" vertex="1">
                    <mxGeometry x="1540" y="1020" width="80" height="40" as="geometry"/>
                </mxCell>
                <mxCell id="129" value="Navbar" style="rounded=0;whiteSpace=wrap;html=1;" parent="1" vertex="1">
                    <mxGeometry x="1640" y="690" width="870" height="60" as="geometry"/>
                </mxCell>
                <mxCell id="130" value="Home" style="rounded=1;whiteSpace=wrap;html=1;" parent="1" vertex="1">
                    <mxGeometry x="1660" y="705" width="80" height="30" as="geometry"/>
                </mxCell>
                <mxCell id="131" value="Games" style="rounded=1;whiteSpace=wrap;html=1;" parent="1" vertex="1">
                    <mxGeometry x="1740" y="705" width="80" height="30" as="geometry"/>
                </mxCell>
                <mxCell id="132" value="Search Bar" style="rounded=1;whiteSpace=wrap;html=1;" parent="1" vertex="1">
                    <mxGeometry x="2180" y="705" width="220" height="30" as="geometry"/>
                </mxCell>
                <mxCell id="133" value="About us" style="rounded=1;whiteSpace=wrap;html=1;" parent="1" vertex="1">
                    <mxGeometry x="1820" y="705" width="80" height="30" as="geometry"/>
                </mxCell>
                <mxCell id="134" value="Login" style="rounded=1;whiteSpace=wrap;html=1;" parent="1" vertex="1">
                    <mxGeometry x="2420" y="705" width="80" height="30" as="geometry"/>
                </mxCell>
                <mxCell id="135" value="" style="shape=curlyBracket;whiteSpace=wrap;html=1;rounded=1;" parent="1" vertex="1">
                    <mxGeometry x="1620" y="750" width="20" height="570" as="geometry"/>
                </mxCell>
                <mxCell id="136" value="&lt;font style=&quot;font-size: 18px&quot;&gt;GET SINGLE GAME&lt;br&gt;/games/:id&lt;/font&gt;" style="text;html=1;strokeColor=none;fillColor=none;align=center;verticalAlign=middle;whiteSpace=wrap;rounded=0;" parent="1" vertex="1">
                    <mxGeometry x="2080" y="580" width="230" height="60" as="geometry"/>
                </mxCell>
                <mxCell id="150" value="Banner image? Maybe?" style="rounded=0;whiteSpace=wrap;html=1;fontFamily=Helvetica;fontSize=12;fontColor=#FCFCFC;" parent="1" vertex="1">
                    <mxGeometry x="1680" y="830" width="630" height="220" as="geometry"/>
                </mxCell>
                <mxCell id="154" value="Game informaiton genre, release date, platforms, description etc." style="rounded=0;whiteSpace=wrap;html=1;fontFamily=Helvetica;fontSize=12;fontColor=#FCFCFC;" parent="1" vertex="1">
                    <mxGeometry x="1680" y="1060" width="250" height="220" as="geometry"/>
                </mxCell>
                <mxCell id="158" value="" style="rounded=0;whiteSpace=wrap;html=1;fontFamily=Helvetica;fontSize=12;fontColor=#FCFCFC;" parent="1" vertex="1">
                    <mxGeometry x="1960" y="1060" width="350" height="550" as="geometry"/>
                </mxCell>
                <mxCell id="162" value="&lt;font style=&quot;font-size: 49px&quot;&gt;GAME TITLE&lt;/font&gt;" style="text;html=1;strokeColor=none;fillColor=none;align=center;verticalAlign=middle;whiteSpace=wrap;rounded=0;fontFamily=Helvetica;fontSize=12;fontColor=#FCFCFC;" parent="1" vertex="1">
                    <mxGeometry x="1700" y="770" width="420" height="50" as="geometry"/>
                </mxCell>
                <mxCell id="163" value="Review 1" style="rounded=0;whiteSpace=wrap;html=1;fontFamily=Helvetica;fontSize=12;fontColor=#FCFCFC;" parent="1" vertex="1">
                    <mxGeometry x="1985" y="1110" width="305" height="150" as="geometry"/>
                </mxCell>
                <mxCell id="164" value="Review 2" style="rounded=0;whiteSpace=wrap;html=1;fontFamily=Helvetica;fontSize=12;fontColor=#FCFCFC;" parent="1" vertex="1">
                    <mxGeometry x="1985" y="1280" width="305" height="150" as="geometry"/>
                </mxCell>
                <mxCell id="165" value="Reviews&amp;nbsp; (review count)" style="text;html=1;strokeColor=none;fillColor=none;align=center;verticalAlign=middle;whiteSpace=wrap;rounded=0;fontFamily=Helvetica;fontSize=12;fontColor=#FCFCFC;" parent="1" vertex="1">
                    <mxGeometry x="1965" y="1060" width="155" height="50" as="geometry"/>
                </mxCell>
                <mxCell id="166" style="edgeStyle=none;html=1;entryX=0.182;entryY=0.996;entryDx=0;entryDy=0;entryPerimeter=0;fontFamily=Helvetica;fontSize=12;fontColor=#FCFCFC;startArrow=none;exitX=1;exitY=0.5;exitDx=0;exitDy=0;exitPerimeter=0;" parent="1" source="169" target="77" edge="1">
                    <mxGeometry relative="1" as="geometry">
                        <Array as="points">
                            <mxPoint x="2742" y="1500"/>
                            <mxPoint x="2742" y="800"/>
                        </Array>
                        <mxPoint x="2160" y="1500" as="sourcePoint"/>
                    </mxGeometry>
                </mxCell>
                <mxCell id="167" value="&lt;font style=&quot;font-size: 24px&quot;&gt;+ Add to My Games&lt;/font&gt;" style="rounded=0;whiteSpace=wrap;html=1;" parent="1" vertex="1">
                    <mxGeometry x="2330" y="770" width="160" height="60" as="geometry"/>
                </mxCell>
                <mxCell id="169" value="&lt;font style=&quot;font-size: 24px&quot;&gt;+ Add Review&lt;/font&gt;" style="rounded=0;whiteSpace=wrap;html=1;" parent="1" vertex="1">
                    <mxGeometry x="2060" y="1470" width="150" height="60" as="geometry"/>
                </mxCell>
                <mxCell id="170" value="" style="edgeStyle=none;html=1;entryX=0.182;entryY=0.996;entryDx=0;entryDy=0;entryPerimeter=0;fontFamily=Helvetica;fontSize=12;fontColor=#FCFCFC;endArrow=none;" parent="1" target="169" edge="1">
                    <mxGeometry relative="1" as="geometry">
                        <Array as="points"/>
                        <mxPoint x="2160" y="1500" as="sourcePoint"/>
                        <mxPoint x="2741.9000000000005" y="207.9399999999996" as="targetPoint"/>
                    </mxGeometry>
                </mxCell>
                <mxCell id="171" value="&lt;span style=&quot;font-size: 24px&quot;&gt;Add Review&lt;/span&gt;" style="rounded=0;whiteSpace=wrap;html=1;" parent="1" vertex="1">
                    <mxGeometry x="2270" y="-200" width="150" height="60" as="geometry"/>
                </mxCell>
                <mxCell id="172" value="&lt;span style=&quot;font-size: 24px&quot;&gt;Add to My Games&lt;/span&gt;" style="rounded=0;whiteSpace=wrap;html=1;" parent="1" vertex="1">
                    <mxGeometry x="2270" y="-140" width="150" height="60" as="geometry"/>
                </mxCell>
                <mxCell id="173" value="&lt;span style=&quot;font-size: 24px&quot;&gt;Add to Wishlist&lt;/span&gt;" style="rounded=0;whiteSpace=wrap;html=1;" parent="1" vertex="1">
                    <mxGeometry x="2270" y="-80" width="150" height="60" as="geometry"/>
                </mxCell>
            </root>
        </mxGraphModel>
    </diagram>
</mxfile>